<svg width="40" height="40" viewBox="0 0 40 40" fill="none" xmlns="http://www.w3.org/2000/svg">
<path fill-rule="evenodd" clip-rule="evenodd" d="M36.6668 20C36.6668 29.2048 29.2049 36.6667 20.0002 36.6667C10.7954 36.6667 3.3335 29.2048 3.3335 20C3.3335 10.7953 10.7954 3.33337 20.0002 3.33337C29.2049 3.33337 36.6668 10.7953 36.6668 20ZM20.5974 15.6375C18.9763 16.3117 15.7364 17.7073 10.8778 19.8241C10.0888 20.1379 9.67549 20.4448 9.63787 20.7449C9.57428 21.2521 10.2095 21.4519 11.0744 21.7239C11.1921 21.7608 11.314 21.7992 11.4389 21.8398C12.2899 22.1164 13.4346 22.44 14.0297 22.4529C14.5695 22.4646 15.172 22.242 15.8371 21.7853C20.3767 18.7209 22.7201 17.172 22.8672 17.1386C22.971 17.1151 23.1149 17.0855 23.2123 17.1721C23.3098 17.2587 23.3002 17.4227 23.2899 17.4667C23.2269 17.735 20.7336 20.053 19.4434 21.2525C19.0411 21.6265 18.7558 21.8918 18.6975 21.9523C18.5668 22.0881 18.4336 22.2164 18.3057 22.3398C17.5151 23.1019 16.9222 23.6734 18.3385 24.6067C19.0191 25.0552 19.5637 25.4261 20.107 25.7961C20.7004 26.2002 21.2922 26.6032 22.0579 27.1052C22.253 27.233 22.4393 27.3659 22.6208 27.4952C23.3113 27.9875 23.9317 28.4298 24.6982 28.3593C25.1435 28.3183 25.6035 27.8995 25.8372 26.6506C26.3893 23.6989 27.4746 17.3035 27.7254 14.6681C27.7474 14.4372 27.7198 14.1417 27.6976 14.012C27.6754 13.8822 27.629 13.6974 27.4604 13.5606C27.2607 13.3986 26.9524 13.3644 26.8145 13.3668C26.1877 13.3779 25.2259 13.7123 20.5974 15.6375Z" fill="#178F55"/>
</svg>
