<svg width="144" height="145" viewBox="0 0 144 145" fill="none" xmlns="http://www.w3.org/2000/svg">
<path fill-rule="evenodd" clip-rule="evenodd" d="M68.8379 0.243259C56.6964 1.33706 45.2594 5.72752 35.4628 13.0551C31.2116 16.2348 24.5876 23.0084 21.7499 27.0781C17.3895 33.3314 13.958 40.3157 12.1626 46.5926C11.7186 48.1444 11.3553 49.5417 11.3553 49.6977C11.3553 49.8538 11.8288 49.935 12.4072 49.8777C13.4145 49.7783 13.4894 49.6689 14.1721 47.2888C17.2152 36.6808 22.8498 27.477 31.2257 19.4337C38.4203 12.5246 47.0391 7.51121 56.5764 4.6874C62.3689 2.9723 67.8956 2.22675 74.7867 2.23073C81.2456 2.23471 82.0827 2.44247 82.2419 4.08268C82.4155 5.87067 81.9143 6.0105 75.6561 5.91772C72.0448 5.86437 68.7294 6.01315 66.3517 6.3349C57.2957 7.56091 48.0651 11.171 40.6188 16.3992C37.3148 18.719 36.4186 19.4867 32.6604 23.2168C27.7193 28.1212 24.4823 32.6031 21.3474 38.8816C19.2617 43.0584 16.7682 50.0868 17.089 50.8857C17.2342 51.2475 17.5588 50.5957 18.0552 48.9456C21.1509 38.6557 26.0881 30.5871 33.9716 22.9342C47.6234 9.68159 66.4524 4.1072 85.3334 7.72858C92.8019 9.16136 101.572 12.9862 107.904 17.5722C119.927 26.2799 128.687 40.1043 131.348 54.5697C131.701 56.4882 132.03 58.653 132.079 59.3806C132.146 60.3568 132.326 60.7332 132.769 60.8184C133.314 60.9231 133.348 60.7591 133.148 58.9986C131.658 45.8951 125.781 33.3987 116.685 23.9879C110.315 17.3982 103.19 12.6469 94.938 9.48675C91.5297 8.18154 90.7368 7.36276 91.5954 6.03502C92.2961 4.95149 92.8892 4.98761 96.2978 6.32198C108.814 11.2207 119.464 19.8757 126.523 30.8867C131.263 38.2789 134.031 45.0753 135.702 53.4189C136.395 56.8802 136.472 57.0638 137.243 57.0638C138.363 57.0638 138.436 55.9783 137.587 51.9606C134.932 39.3956 128.622 27.8975 119.37 18.77C112.72 12.2092 105.76 7.65303 97.3709 4.36963C88.9646 1.0796 77.6752 -0.552989 68.8379 0.243259ZM65.7344 31.456C65.8419 31.7691 65.787 32.1147 65.6121 32.2244C65.4371 32.3341 65.3786 32.5624 65.4823 32.732C65.5856 32.9017 65.4496 33.0405 65.1798 33.0405C64.3882 33.0405 64.2156 33.6953 64.8267 34.3798C65.2838 34.8918 65.306 35.0432 64.9405 35.1612C63.6186 35.588 63.5483 35.6403 64.2653 35.6652C65.2122 35.698 66.0214 34.9173 65.7592 34.2248C65.6506 33.9378 65.7245 33.7032 65.9237 33.7032C66.3746 33.7032 66.3919 34.5396 65.9577 35.3616C65.5565 36.1218 65.9632 36.4399 67.3963 36.4866C68.2572 36.5148 68.3985 36.6367 68.3282 37.2931C68.2742 37.7968 68.3883 38.0135 68.6551 37.9144C68.8804 37.8309 69.023 37.5787 68.9716 37.3548C68.9203 37.1304 69.0119 36.7762 69.1747 36.5678C69.4719 36.1877 69.45 35.8408 69.0433 34.4488C68.8968 33.9481 68.9628 33.7032 69.2447 33.7032C69.4755 33.7032 69.5657 33.8033 69.4451 33.9252C69.3248 34.0475 69.4572 34.5051 69.74 34.9422C70.0225 35.3792 70.2125 36.1367 70.1618 36.6254C70.1111 37.1142 70.1834 37.7004 70.3223 37.9283C70.4613 38.156 70.4289 38.3422 70.2504 38.3422C70.0722 38.3422 69.8237 38.6699 69.6982 39.0705L69.4699 39.7988L68.8879 39.0705C68.1215 38.1112 68.0061 38.1507 68.1745 39.3141C68.3936 40.827 68.9981 40.7299 70.2252 38.9844C70.8458 38.1016 71.4641 37.3723 71.5988 37.3637C72.0899 37.3325 71.827 38.255 71.1741 38.8538C70.3207 39.6365 70.3887 41.7561 71.2728 41.9261C71.588 41.9864 71.9192 41.8015 72.0085 41.5146C72.5438 39.7972 72.5205 39.8313 72.8191 40.3207C73.0362 40.6766 73.2879 40.7087 73.864 40.4529C74.4179 40.2074 74.8443 40.2389 75.4407 40.5689L76.2581 41.0212L75.2772 40.9244C74.4892 40.8466 74.2767 40.9655 74.1972 41.5308C74.07 42.4341 74.7459 42.6882 76.5929 42.4318C77.7284 42.2741 78.0564 42.0905 78.0564 41.6137C78.0564 41.2753 77.7759 40.8211 77.4329 40.604C76.964 40.3071 76.8502 39.9529 76.9741 39.1775C77.1929 37.8117 76.4742 37.199 74.9476 37.4502C73.8676 37.6278 73.4194 37.2981 74.1328 36.8511C74.8691 36.3898 74.3738 36.0227 73.0152 36.0227C70.5054 36.0227 70.0098 35.5621 71.2107 34.3454C72.0556 33.4888 71.8637 32.8573 70.7814 32.9321C70.0997 32.9795 69.9136 32.8042 69.725 31.9381L69.4961 30.8867L69.0982 32.0153C68.7388 33.0342 68.5685 33.1502 67.3437 33.2092C66.0875 33.2698 66.0126 33.2264 66.3317 32.622C66.5998 32.114 66.5501 31.8489 66.1077 31.4278C65.5804 30.9261 65.5532 30.9281 65.7344 31.456ZM68.2474 31.7151C68.2474 31.8973 68.4034 32.0464 68.5937 32.0464C68.784 32.0464 68.849 31.8973 68.7379 31.7151C68.6267 31.5328 68.4711 31.3837 68.3916 31.3837C68.3122 31.3837 68.2474 31.5328 68.2474 31.7151ZM67.5935 34.5121C67.5935 34.5926 67.4463 34.7503 67.2665 34.863C67.0867 34.9756 66.9396 34.9097 66.9396 34.7168C66.9396 34.524 67.0867 34.3659 67.2665 34.3659C67.4463 34.3659 67.5935 34.4315 67.5935 34.5121ZM75.7676 35.9196C75.7676 36.4273 76.5112 37.3312 76.7868 37.1586C76.9696 37.0439 77.3201 37.2262 77.5656 37.5635C77.9236 38.0549 78.0947 38.0943 78.4268 37.7623C78.9856 37.2037 79.3643 37.2404 79.3643 37.8534C79.3643 38.1311 79.0108 38.4949 78.5786 38.6613C77.291 39.1573 77.2537 39.6577 78.4288 40.6763C79.7318 41.8059 80.678 41.9019 81.4948 40.9874C82.0758 40.3363 82.0686 40.2945 81.2139 39.3903C80.3128 38.4373 80.3533 38.0108 81.3457 38.0108C81.656 38.0108 82.0009 37.7703 82.1124 37.4764C82.2857 37.0188 82.3959 37.0068 82.8792 37.3935C83.4092 37.8177 83.4118 37.7948 82.9197 37.0168C82.5205 36.3859 82.0653 36.1639 81.0115 36.085C80.0963 36.0164 79.7001 36.1006 79.8423 36.3335C79.9603 36.527 79.8397 36.6854 79.5742 36.6854C79.309 36.6854 79.0429 36.5578 78.9827 36.4018C78.8725 36.1145 75.7676 35.6486 75.7676 35.9196ZM63.4652 36.5088C63.3642 36.7762 63.3442 37.1861 63.4214 37.42C63.4986 37.654 63.6392 37.4349 63.734 36.9339C63.919 35.9554 63.7663 35.7139 63.4652 36.5088ZM64.6508 36.3736C64.6508 36.5665 64.7979 36.6324 64.9778 36.5197C65.1576 36.4071 65.3047 36.2493 65.3047 36.1688C65.3047 36.0883 65.1576 36.0227 64.9778 36.0227C64.7979 36.0227 64.6508 36.1808 64.6508 36.3736ZM64.1816 37.6447C64.0819 37.808 64.213 38.0241 64.4726 38.1248C64.7875 38.2474 64.8839 38.1487 64.7626 37.8283C64.5517 37.2716 64.4321 37.2338 64.1816 37.6447ZM65.3047 38.0108C65.3047 38.1931 65.4519 38.3422 65.6317 38.3422C65.8115 38.3422 65.9587 38.1931 65.9587 38.0108C65.9587 37.8286 65.8115 37.6795 65.6317 37.6795C65.4519 37.6795 65.3047 37.8286 65.3047 38.0108ZM81.6635 38.5907C81.6857 39.1232 82.6081 40.0543 82.9197 39.8591C83.128 39.7286 83.1937 40.113 83.0989 40.9029C82.9841 41.8605 83.0214 41.9977 83.2588 41.4901C83.6809 40.5881 83.7028 38.5794 83.2879 38.8392C83.108 38.9519 82.9609 38.8859 82.9609 38.6931C82.9609 38.5002 82.6666 38.3422 82.307 38.3422C81.9473 38.3422 81.6576 38.4542 81.6635 38.5907ZM63.217 39.9059C62.6854 40.4443 63.0532 41.0629 63.817 40.9152C64.2816 40.825 64.6838 40.9337 64.7747 41.1736C64.8669 41.4172 64.5939 41.6528 64.1113 41.7462C63.5983 41.8456 63.2268 41.7346 63.1186 41.449C62.9254 40.9384 61.5217 40.8257 61.234 41.2976C60.9734 41.7247 61.9608 42.6498 62.6772 42.6498C63.0048 42.6498 63.3616 42.8841 63.4701 43.17C63.5885 43.4825 63.9612 43.6475 64.4043 43.5832C64.9552 43.5031 65.1206 43.2834 65.0598 42.7124C65.0082 42.2247 65.1095 42.0305 65.3404 42.175C65.5882 42.3304 65.6265 42.1541 65.4626 41.6143C65.3312 41.1816 65.205 40.8194 65.1824 40.8098C65.1599 40.8002 64.7535 40.547 64.2797 40.2472C63.8056 39.9473 63.3276 39.7939 63.217 39.9059ZM67.6088 40.8088C67.1285 41.3953 67.3528 41.8459 68.2422 42.0819C68.7212 42.2088 68.9013 42.0948 68.9013 41.6654C68.9013 40.7482 68.0957 40.214 67.6088 40.8088ZM72.6886 42.2741C72.5477 42.505 72.5209 42.7833 72.6288 42.8927C72.9214 43.1893 73.2405 42.7532 73.0823 42.2727C72.9718 41.9361 72.8946 41.9361 72.6886 42.2741ZM82.3586 42.6498C82.3586 43.1054 82.4328 43.292 82.5234 43.064C82.6143 42.8364 82.6143 42.4636 82.5234 42.2356C82.4328 42.008 82.3586 42.1942 82.3586 42.6498ZM69.2283 42.7177C69.2283 42.8741 69.4856 43.1008 69.8005 43.2214C70.6964 43.5653 71.2542 44.2615 70.9995 44.7181C70.8403 45.0041 70.8772 45.0309 71.1169 44.8036C71.3095 44.6214 71.3902 44.077 71.2964 43.5938C71.1682 42.9321 70.8922 42.6806 70.1772 42.5743C69.6553 42.4967 69.2283 42.5613 69.2283 42.7177ZM80.6185 43.4202L81.3329 44.1909L80.5057 44.6396C79.9319 44.9507 79.8011 45.1645 80.078 45.3381C80.5655 45.6436 81.0812 45.3719 80.8216 44.9464C80.7182 44.7768 80.7807 44.6379 80.9605 44.6379C81.1403 44.6379 81.3784 44.7871 81.4895 44.9693C81.7825 45.4498 82.2085 45.3755 82.424 44.8063C82.6349 44.2496 81.1135 42.6498 80.3733 42.6498C80.0362 42.6498 80.1052 42.8665 80.6185 43.4202ZM71.844 43.3125C71.844 43.4948 72 43.6439 72.1903 43.6439C72.3806 43.6439 72.4457 43.4948 72.3345 43.3125C72.2233 43.1303 72.0677 42.9812 71.9882 42.9812C71.9088 42.9812 71.844 43.1303 71.844 43.3125ZM77.4025 43.3321C77.4025 43.5249 77.5496 43.5909 77.7294 43.4782C77.9093 43.3655 78.0564 43.2078 78.0564 43.1273C78.0564 43.0468 77.9093 42.9812 77.7294 42.9812C77.5496 42.9812 77.4025 43.1392 77.4025 43.3321ZM83.4657 43.8699C83.1924 44.9733 83.7881 45.6343 85.0443 45.6214C85.9647 45.6121 86.0099 45.5667 85.4949 45.1708C85.1803 44.9285 84.9227 44.6353 84.9227 44.5187C84.9227 44.402 84.6412 44.0213 84.2972 43.6727C83.6809 43.0481 83.6684 43.0511 83.4657 43.8699ZM61.3043 44.2433C59.986 44.3543 59.0924 45.2536 59.0924 46.47C59.0924 46.9187 58.7772 47.2825 58.1932 47.5078C57.4065 47.8113 57.3679 47.8869 57.8846 48.1112C58.53 48.3919 59.8176 47.2918 59.7214 46.5419C59.6927 46.3149 59.6861 45.9753 59.7077 45.7871C59.7584 45.3398 61.2902 45.2148 61.5476 45.637C61.8542 46.14 62.5961 46.0237 62.8181 45.4378C63.1474 44.5677 62.5987 44.1346 61.3043 44.2433ZM78.0564 44.2764C78.0564 44.6999 79.0229 45.4256 79.2632 45.1824C79.3787 45.0651 79.293 44.9693 79.0726 44.9693C78.8522 44.9693 78.7532 44.8358 78.8526 44.6727C78.9523 44.5094 78.8136 44.2907 78.5449 44.186C78.2761 44.0816 78.0564 44.1224 78.0564 44.2764ZM64.9778 44.6575C64.9778 44.8503 65.1249 44.9163 65.3047 44.8036C65.4845 44.691 65.6317 44.5332 65.6317 44.4527C65.6317 44.3722 65.4845 44.3066 65.3047 44.3066C65.1249 44.3066 64.9778 44.4646 64.9778 44.6575ZM72.8508 45.8252C72.8665 46.2112 72.944 46.2898 73.0483 46.0257C73.1427 45.7864 73.131 45.5005 73.0224 45.3905C72.9139 45.2804 72.8367 45.4759 72.8508 45.8252ZM70.5234 45.9634C70.4688 46.2367 70.4126 46.8332 70.3985 47.2888C70.3769 47.9813 70.2128 48.1172 69.3977 48.1172C68.7294 48.1172 68.3874 48.2998 68.3112 48.6971C68.1523 49.5221 70.0895 49.5188 70.3478 48.6937C70.4714 48.2994 70.8622 48.1115 71.5547 48.1139C72.3214 48.1162 72.6487 47.928 72.8576 47.3643C73.0967 46.7185 73.0558 46.6532 72.5719 46.9054C72.2616 47.0668 71.8238 47.1324 71.5988 47.0509C71.3742 46.969 71.1708 47.1009 71.1469 47.3441C71.1234 47.587 70.9956 47.2639 70.8631 46.6261C70.7307 45.9882 70.5777 45.69 70.5234 45.9634ZM62.5549 46.2463C62.4601 46.4018 62.7407 46.6943 63.1781 46.8965C63.7618 47.1662 64.0335 47.1652 64.1992 46.8938C64.3362 46.6688 64.2767 46.6165 64.0475 46.7603C63.8236 46.9001 63.6699 46.7861 63.6699 46.48C63.6699 45.9355 62.8495 45.7636 62.5549 46.2463ZM60.3518 47.206C60.2711 47.6201 60.1727 48.4137 60.1217 49.0639C60.089 49.4791 59.9059 49.6142 59.5589 49.479C59.1941 49.3372 59.0767 49.4472 59.1548 49.8581C59.3199 50.7266 60.1799 50.5543 60.4006 49.6083C60.5627 48.9131 60.6291 48.8733 60.8138 49.3598C61.0895 50.0871 62.0351 50.1239 62.0351 49.4071C62.0351 49.0642 61.8562 48.9442 61.5322 49.0702C60.9047 49.3144 60.5009 48.3796 61.0107 47.863C61.2144 47.6566 61.3811 47.3683 61.3811 47.2225C61.3811 46.8869 60.4169 46.8713 60.3518 47.206ZM78.0839 47.3935C77.4855 47.9999 77.685 48.2829 78.7103 48.2829C79.3276 48.2829 79.6912 48.1129 79.6912 47.8246C79.6912 47.2331 78.5452 46.926 78.0839 47.3935ZM63.5417 48.5811C63.7147 49.5473 63.6643 49.6772 63.1889 49.492C62.8253 49.3508 62.6808 49.4191 62.7691 49.6908C62.9365 50.206 64.3238 50.4486 64.3238 49.9628C64.3238 49.7677 64.5445 49.6083 64.8143 49.6083C65.3796 49.6083 65.427 49.3187 64.9778 48.6142C64.7665 48.2829 64.6593 48.2554 64.6557 48.5314C64.6475 49.2146 63.9985 48.9992 63.6578 48.2C63.4001 47.596 63.3779 47.6685 63.5417 48.5811ZM81.3892 48.3037C81.057 48.8425 81.0704 48.9939 81.4631 49.1467C82.2419 49.4496 83.1087 49.1457 83.2261 48.5287C83.3058 48.1089 83.1878 48.0111 82.7882 48.1666C82.4871 48.2835 82.1405 48.2146 82.0176 48.0131C81.8727 47.7752 81.6517 47.8776 81.3892 48.3037ZM10.8273 56.5508C5.48234 59.658 3.43455 65.4769 2.89441 79.0953C2.70444 83.8827 2.64689 84.2356 2.03677 84.3483C1.67711 84.4149 1.1386 84.6882 0.840077 84.9563C0.196934 85.5335 -0.235315 87.0405 0.138734 87.4017C0.28358 87.5415 1.72616 87.3583 3.34464 86.9938C6.00549 86.395 9.84734 86.1598 13.4217 86.3772C14.1084 86.4189 14.7603 86.3622 14.8699 86.2512C14.9794 86.1402 14.7116 85.5663 14.2748 84.9765L13.4806 83.9036V72.8032C13.4806 66.6979 13.5963 60.3237 13.7376 58.6377C13.9933 55.5892 13.9903 55.5727 13.2471 55.5757C12.8361 55.5776 11.747 56.0164 10.8273 56.5508ZM80.42 56.3202C80.0247 56.7467 79.6065 57.5761 79.4905 58.1635C79.3747 58.7507 79.1687 59.3008 79.0331 59.3859C78.8974 59.4707 77.7186 59.6938 76.4137 59.8813C70.3116 60.7584 66.9065 64.9706 67.3394 71.1056C67.5274 73.7674 68.3981 75.8805 70.0905 77.7831C71.4795 79.3445 74.0759 80.7448 75.6042 80.757C77.5408 80.7723 77.9662 81.0556 78.1512 82.4532C78.4298 84.558 79.6029 85.9454 81.6229 86.5587L82.4103 86.798L82.2092 83.4519C82.0513 80.823 82.117 79.8422 82.5156 78.8753C82.9766 77.7569 82.9753 77.6095 82.5015 77.2586C82.2148 77.0459 81.98 76.5531 81.98 76.1631C81.98 75.4828 82.1235 75.4537 85.4949 75.4467C90.4877 75.4365 92.5753 74.3433 93.3908 71.3121C94.1366 68.5383 93.638 66.5263 91.6484 64.2837C90.0211 62.4493 87.6807 61.1676 84.4623 60.3485L82.252 59.7859L82.3612 57.7619C82.4596 55.9358 82.4054 55.7291 81.8044 55.6416C81.4327 55.5879 80.8212 55.8875 80.42 56.3202ZM10.3986 61.7389C9.82413 67.0359 9.30458 78.2066 9.49422 81.1835L9.67961 84.0964L7.16622 84L4.6525 83.9036L4.7434 80.4243C4.95854 72.1822 5.89922 66.4653 7.67955 62.5795C8.45218 60.8933 10.3159 58.3849 10.5899 58.6626C10.6605 58.7341 10.5745 60.1185 10.3986 61.7389ZM78.4327 67.3358C78.3696 68.976 78.2012 70.4439 78.0584 70.598C77.9155 70.7517 76.7927 70.7189 75.5633 70.5251C72.857 70.098 72.5676 70.2951 73.1264 72.1852C73.7326 74.2356 75.0735 75.454 76.7234 75.454C77.9456 75.454 78.0564 75.5266 78.0564 76.3275C78.0564 77.1757 78.0126 77.1946 76.5429 76.9905C73.9955 76.637 72.5529 76.0624 71.145 74.841C69.5625 73.4682 68.9013 72.0553 68.9013 70.0463C68.9013 67.2298 71.3376 65.1505 75.3494 64.5431C78.6956 64.0368 78.5635 63.9172 78.4327 67.3358ZM96.7589 64.5855C95.7695 65.5882 96.8151 67.6701 97.9471 66.9514C98.6948 66.4766 98.7995 65.3755 98.1589 64.7264C97.5246 64.0835 97.2787 64.0587 96.7589 64.5855ZM100.468 64.6336C99.7836 65.1406 99.8997 66.4614 100.671 66.9514C101.065 67.2016 101.36 67.1768 101.734 66.862C102.973 65.8195 101.756 63.6786 100.468 64.6336ZM85.4226 65.0273C90.0914 65.8523 92.8029 67.6595 92.3167 69.6222C91.9191 71.2279 90.7325 71.6527 86.8966 71.5626C82.2785 71.4546 81.5405 71.2819 81.7825 70.368C81.8861 69.976 81.9731 68.4995 81.9754 67.0873C81.978 65.6751 82.1078 64.5193 82.2641 64.5193C82.4204 64.5193 83.8417 64.7479 85.4226 65.0273ZM19.6929 67.4067C17.8077 67.9031 16.2582 69.9979 16.2611 72.047C16.2627 73.3048 17.3309 74.9815 18.5312 75.6104L19.5236 76.1306L18.5531 77.4882C17.3875 79.1191 17.0272 80.7265 17.5892 81.7902C17.996 82.5606 17.9989 82.5593 18.3972 81.3929C19.3133 78.7112 21.128 75.7854 21.8751 75.7854C22.0236 75.7854 22.1452 76.9136 22.1452 78.2924C22.1452 81.5795 22.7203 82.7276 24.3722 82.7389C25.0124 82.7432 25.3854 82.1988 26.8087 79.1818L28.4893 75.6197L28.7463 76.8676C29.1099 78.6317 30.1523 80.5744 31.1717 81.3869C32.1961 82.2037 34.1498 82.3074 35.0796 81.5947C36.0579 80.8445 36.2047 80.9721 36.2047 82.5715C36.2047 83.9642 36.1259 84.0968 34.9243 84.7177C30.8651 86.8165 31.075 92.3531 35.214 92.3531C36.6177 92.3531 37.9602 90.7991 38.6223 88.4077L39.1782 86.4L40.418 87.2314C42.1415 88.3875 42.9569 88.4886 43.5566 87.6204C43.8289 87.2264 44.0519 86.6651 44.0519 86.3728C44.0519 85.5047 42.6829 84.4811 41.1092 84.173C39.3583 83.8303 39.1206 83.165 40.126 81.4184C41.3083 79.364 43.071 75.6512 43.071 75.2148C43.071 74.2741 42.4867 74.8987 41.5918 76.796C39.8517 80.4853 39.6889 80.257 39.8654 74.3738C40.0139 69.4273 39.99 69.1583 39.4051 69.1583C39.0657 69.1583 38.3758 69.3743 37.8723 69.6381C36.9957 70.0973 36.925 70.0748 36.2217 69.1105C35.3497 67.9157 33.6763 67.1287 32.578 67.3974C30.6905 67.8593 28.6845 71.0062 28.6845 73.5053C28.6845 74.009 28.5469 74.507 28.3788 74.6124C28.2104 74.7177 27.7121 75.5839 27.2714 76.5372C26.8309 77.4905 26.2261 78.5688 25.9275 78.9333C25.4168 79.5565 25.3969 79.3909 25.5891 76.1459C25.7013 74.2482 25.9282 71.8624 26.0927 70.8442C26.2571 69.8259 26.3928 68.8617 26.3938 68.7016C26.3948 68.5416 25.8043 68.5068 25.0813 68.6238C24.0609 68.7891 23.5672 68.691 22.8743 68.1847C21.8653 67.4475 20.6585 67.1526 19.6929 67.4067ZM45.1855 67.8275C44.4606 68.194 43.6053 68.9429 43.2852 69.4923C42.0767 71.5652 42.8444 74.672 44.7794 75.5402C45.2784 75.7638 45.6861 76.0226 45.6854 76.1147C45.6845 76.2068 45.2437 76.9534 44.7059 77.7735C43.7096 79.2921 43.43 81.0953 44.0392 82.0715C44.4155 82.6746 44.4946 82.5762 44.9638 80.9214C45.3964 79.3955 47.3095 76.0534 47.8506 75.8778C48.0909 75.7999 48.2953 76.7861 48.4473 78.753C48.6429 81.2872 48.7861 81.8233 49.3805 82.2455C50.9333 83.3476 51.3616 82.992 53.1589 79.1082C54.0846 77.1085 54.8418 75.3192 54.8418 75.1319C54.8418 74.2906 54.2657 75.01 53.2403 77.1317C52.6292 78.3958 51.9995 79.4303 51.8416 79.4303C51.5568 79.4303 51.6728 77.4226 52.2529 72.3148C52.7142 68.2537 52.7433 68.3776 51.375 68.6026C50.5174 68.7437 49.9615 68.6274 49.3314 68.1751C47.9507 67.1837 46.6729 67.0767 45.1855 67.8275ZM108.588 67.6542C106.844 68.4097 105.195 71.2491 105.195 73.4957C105.195 74.0047 105.052 74.5103 104.877 74.6197C104.702 74.7293 104.257 75.5127 103.886 76.3606C101.29 82.3094 97.3474 82.2687 97.3474 76.293V74.4599H98.6111C100.168 74.4599 101.418 73.5302 101.916 72.0029C102.399 70.5185 102.067 69.3388 100.883 68.3289C97.9435 65.8222 94.1206 69.7 94.0856 75.2244C94.0709 77.575 94.7591 79.4478 96.1978 80.9691C97.3294 82.1663 97.7698 82.4125 98.7789 82.4125C101.104 82.4125 102.801 80.9187 104.257 77.5896L104.974 75.951L105.61 77.8812C106.504 80.5937 108.026 82.0811 109.907 82.0811C110.77 82.0811 111.486 81.8863 111.734 81.5841C112.424 80.7408 112.715 81.0258 112.715 82.5467C112.715 83.9215 112.631 84.056 111.275 84.8615C108.535 86.4885 107.683 90.096 109.665 91.6762C111.754 93.3409 114.209 91.9327 115.192 88.5061C115.674 86.8258 116.313 86.2499 116.803 87.0538C116.915 87.2373 117.45 87.6197 117.992 87.9037C118.886 88.3722 119.05 88.3712 119.769 87.8938C121.412 86.8033 120.387 84.6226 118.046 84.2276C117.362 84.112 116.62 83.9602 116.399 83.8903C115.801 83.7018 116.257 81.8691 117.298 80.2779C118.633 78.2361 119.919 75.1684 119.538 74.9301C119.358 74.8172 119.178 74.7771 119.139 74.841C119.099 74.9046 118.58 75.9636 117.985 77.1936C117.39 78.4236 116.748 79.4303 116.558 79.4303C116.323 79.4303 116.272 77.7947 116.398 74.2943C116.582 69.1884 116.579 69.1583 115.875 69.1699C115.486 69.1765 114.806 69.3846 114.364 69.6324C113.612 70.0546 113.486 70.0026 112.402 68.8206C111.056 67.3547 110.015 67.0359 108.588 67.6542ZM122.922 68.0187C121.325 69.152 120.062 73.5918 120.316 77.1817C120.561 80.652 122.287 82.5275 124.881 82.1414C126.894 81.8422 128.447 79.2911 128.647 75.9537C128.724 74.6767 128.992 73.0789 129.244 72.4032C129.529 71.6355 129.581 71.1003 129.382 70.9754C129.207 70.8657 129.063 70.934 129.063 71.1268C129.063 71.8823 128.52 71.4198 128.133 70.3342C127.282 67.9508 124.659 66.7854 122.922 68.0187ZM133.308 68.1095C131.042 69.3193 130.961 69.7802 131.126 80.59C131.287 91.0953 131.49 92.441 133.05 93.3267C133.534 93.6017 134 93.7558 134.086 93.6693C134.171 93.5828 134.321 89.859 134.42 85.3943C134.624 76.1734 134.978 72.9486 136.019 70.815C137.793 67.1797 139.049 69.9982 138.335 76.0167C138.133 77.7245 138.123 77.7377 137.145 77.5392C135.901 77.2874 135.275 78.0518 135.275 79.8249C135.275 82.0861 137.208 83.1365 138.91 81.8001C139.339 81.4635 140.094 81.0881 140.588 80.9658C141.286 80.7931 141.73 80.2481 142.588 78.5131C143.935 75.7893 144.261 74.7913 143.808 74.7913C143.621 74.7913 143.013 75.7234 142.457 76.8623C141.497 78.8292 140.516 80.2421 140.911 79.0903C142.254 75.169 141.82 70.1841 139.953 68.0936C139.104 67.1423 137.452 67.3345 136.282 68.5211L135.275 69.5406V68.5211C135.275 67.3338 134.907 67.2566 133.308 68.1095ZM22.0772 71.4307C22.1802 74.4056 21.9098 75.1227 20.6863 75.1227C19.7773 75.1227 19.2025 73.9258 19.2025 72.0328C19.2025 70.153 20.3743 68.3865 21.4913 68.5824C21.8718 68.6493 22.003 69.2868 22.0772 71.4307ZM48.4983 69.3359C48.6128 69.7981 48.6412 71.0877 48.5618 72.2018C48.446 73.8214 48.2636 74.3533 47.6508 74.8559C46.9927 75.396 46.82 75.4189 46.425 75.019C45.7538 74.3387 45.3892 72.3177 45.692 70.9565C46.1945 68.699 48.072 67.6148 48.4983 69.3359ZM35.3687 69.8949C35.987 70.7892 36.0998 78.2424 35.5148 79.5439C34.9865 80.7186 33.7875 81.1987 33.1623 80.4856C31.862 79.0018 31.5249 73.6276 32.5842 71.2634C33.1293 70.0466 33.9591 69.1984 34.633 69.1682C34.7579 69.1629 35.0888 69.4896 35.3687 69.8949ZM101.271 70.5447C101.271 71.7972 99.698 73.4659 98.517 73.4659C98.0536 73.4659 97.6744 73.3022 97.6744 73.1017C97.6744 72.3601 98.7632 70.4456 99.5351 69.8306C100.565 69.0092 101.271 69.2994 101.271 70.5447ZM111.879 69.8949C112.275 70.4681 112.388 71.5705 112.388 74.8768C112.388 79.5926 112.021 80.7557 110.535 80.7557C109.483 80.7557 108.847 79.2162 108.586 76.0346C108.353 73.1988 108.825 71.0818 109.943 69.9485C110.91 68.9694 111.233 68.9604 111.879 69.8949ZM125.961 69.7066C127.14 70.9012 127.548 73.8841 126.584 74.2588C125.818 74.5567 124.85 74.5034 124.153 74.1253C123.578 73.8138 123.568 73.6978 124.011 72.4271C124.611 70.7024 124.606 70.5556 123.937 70.425C123.429 70.326 123.431 70.2746 123.96 69.7381C124.676 69.0125 125.267 69.0032 125.961 69.7066ZM127.101 76.1611C127.101 77.5293 126.322 79.4823 125.521 80.1205C124.781 80.7103 124.662 80.7209 124.142 80.2438C123.525 79.6771 123.03 77.2244 123.358 76.357C123.495 75.9958 124.062 75.7791 125.086 75.6962C125.925 75.6286 126.721 75.5465 126.856 75.5137C126.991 75.4809 127.101 75.7721 127.101 76.1611ZM137.237 78.7633C137.602 78.9989 137.641 79.2212 137.389 79.6311C136.909 80.4124 136.438 80.256 136.317 79.2749C136.206 78.3829 136.444 78.251 137.237 78.7633ZM35.7568 87.6098C35.5044 89.4747 34.7815 90.6964 33.9304 90.6964C32.5842 90.6964 32.7271 88.5383 34.1772 86.9686C35.4952 85.5421 36.0082 85.7502 35.7568 87.6098ZM112.28 87.7596C112.068 89.5724 111.348 90.6964 110.397 90.6964C109.028 90.6964 109.303 88.1728 110.814 86.8848C112.256 85.6551 112.508 85.8059 112.28 87.7596ZM15.3956 92.2511C14.7064 92.3876 14.7123 92.4254 15.7618 94.608C19.0053 101.355 22.9456 106.813 28.9363 112.857L33.3297 117.29L34.1318 116.413L34.9338 115.537L33.8525 114.635C28.0914 109.832 22.3116 102.51 18.5191 95.2091C17.6085 93.4562 16.6907 92.042 16.4798 92.0668C16.269 92.0917 15.7811 92.1745 15.3956 92.2511ZM64.1603 93.3237C62.6808 93.6855 61.9321 94.1756 60.635 95.6306C59.0172 97.4454 58.732 98.8278 58.838 104.352L58.9289 109.087L68.1657 109.175C77.237 109.261 77.4025 109.251 77.4025 108.595C77.4025 107.743 77.7847 107.741 78.3075 108.59C78.6871 109.206 79.07 109.252 83.7302 109.252C90.1365 109.252 89.8272 109.528 89.8272 103.812C89.8272 98.1983 89.9861 98.3437 83.8349 98.3285C79.3319 98.3175 79.3103 98.3212 78.4174 99.2288L77.5205 100.14L76.2355 99.2702C73.8219 97.6366 65.839 93.0159 65.4898 93.0497C65.2982 93.0685 64.6998 93.1918 64.1603 93.3237ZM21.8182 93.9569C21.8182 94.4679 25.0663 99.7205 26.9562 102.266C30.647 107.237 37.7902 114.077 39.0363 113.834C39.4198 113.758 38.9993 113.277 37.6509 112.249C33.0927 108.775 26.4948 101.015 23.4812 95.5839C22.5369 93.882 21.8182 93.1789 21.8182 93.9569ZM70.4868 96.7436C73.0237 98.2473 75.1029 99.58 75.1065 99.7059C75.1104 99.8315 71.656 99.9468 67.43 99.9621C59.8781 99.9889 59.7463 99.9776 59.7463 99.306C59.7463 98.4362 60.7978 96.3351 61.6012 95.5984C62.3918 94.8741 64.2872 94.0397 65.1805 94.0229C65.5617 94.0159 67.9496 95.2399 70.4868 96.7436ZM79.2554 96.2191C79.1354 96.3403 79.0373 96.7131 79.0373 97.0475C79.0373 97.6084 79.3989 97.6548 83.7783 97.6548H88.5193V96.8264V95.9981H83.9964C81.5085 95.9981 79.375 96.0975 79.2554 96.2191ZM126.827 100.392C124.068 104.535 121.259 107.941 117.567 111.62C114.252 114.923 114.038 115.214 114.228 116.177C114.34 116.742 114.553 117.205 114.701 117.205C115.353 117.205 123.974 108.131 126.034 105.276C129.217 100.868 129.968 99.4677 129.53 98.7589C128.873 97.6943 128.455 97.9468 126.827 100.392ZM88.7809 99.7092C88.9967 99.9279 89.1732 100.941 89.1732 101.961V103.815L86.0079 103.675C84.2668 103.598 81.9496 103.292 80.8582 102.994C78.8951 102.459 78.8728 102.44 78.7695 101.165C78.7041 100.358 78.8264 99.7725 79.0965 99.5989C79.7965 99.1489 88.3238 99.246 88.7809 99.7092ZM121.176 100.72C118.633 104.429 113.917 109.317 109.445 112.878C107.657 114.302 107.653 114.308 108.791 114.058C111.155 113.537 117.797 107.081 122.344 100.886C123.205 99.7122 123.218 99.643 122.585 99.643C122.198 99.643 121.602 100.098 121.176 100.72ZM76.6773 104.53L76.5851 108.424L68.1657 108.512L59.7463 108.601V104.619V100.637H68.2579H76.7691L76.6773 104.53ZM60.4535 101.259C60.2129 101.414 60.0657 101.896 60.1266 102.331C60.2145 102.963 60.4329 103.122 61.2131 103.122C62.2983 103.122 62.7044 102.283 62.022 101.45C61.5773 100.906 61.094 100.848 60.4535 101.259ZM68.2893 101.818C66.8634 103.655 69.433 106.067 70.976 104.339C72.0997 103.08 71.2594 100.968 69.6351 100.968C69.2577 100.968 68.6522 101.351 68.2893 101.818ZM74.2584 101.446C73.9517 102.256 74.2728 103.109 74.9322 103.237C75.7964 103.406 76.4958 102.391 76.0704 101.585C75.6846 100.855 74.5163 100.765 74.2584 101.446ZM70.8631 102.957C70.8631 103.79 69.8839 104.329 69.1381 103.906C67.8675 103.185 68.9975 101.305 70.2825 102.002C70.6019 102.176 70.8631 102.605 70.8631 102.957ZM61.3811 102.294C61.3811 102.476 61.3164 102.625 61.2369 102.625C61.1575 102.625 61.0018 102.476 60.8907 102.294C60.7795 102.112 60.8446 101.962 61.0349 101.962C61.2252 101.962 61.3811 102.112 61.3811 102.294ZM75.4407 102.294C75.4407 102.476 75.3759 102.625 75.2965 102.625C75.217 102.625 75.0614 102.476 74.9502 102.294C74.839 102.112 74.9041 101.962 75.0944 101.962C75.2847 101.962 75.4407 102.112 75.4407 102.294ZM63.1647 103.439C62.1822 104.434 62.1204 105.869 63.0107 107.017C64.7744 109.289 68.0519 107.701 67.6304 104.779C67.3345 102.725 64.6603 101.923 63.1647 103.439ZM66.2856 103.951C67.1534 104.83 67.12 106.104 66.2127 106.748C65.2151 107.457 64.4697 107.395 63.6826 106.539C62.8139 105.594 62.8417 105.091 63.8187 104.101C64.792 103.115 65.4228 103.076 66.2856 103.951ZM80.6744 103.632C81.3025 103.821 83.2454 104.022 84.9917 104.078C88.7387 104.198 89.1732 104.448 89.1732 106.484C89.1732 107.746 89.0595 107.987 88.3346 108.266C87.217 108.697 80.1444 108.681 79.3427 108.247C78.8104 107.958 78.7103 107.538 78.7103 105.596C78.7103 103.081 78.7417 103.05 80.6744 103.632ZM71.2555 106.005C70.2792 106.994 71.3621 108.543 72.5712 107.887C73.5351 107.364 73.1006 105.607 72.0075 105.607C71.8097 105.607 71.4713 105.786 71.2555 106.005ZM72.498 106.748C72.498 106.828 72.3508 106.986 72.171 107.098C71.9912 107.211 71.844 107.145 71.844 106.952C71.844 106.759 71.9912 106.601 72.171 106.601C72.3508 106.601 72.498 106.667 72.498 106.748ZM86.3123 111.793C85.7555 112.018 85.7937 113.446 86.3623 113.667C86.6144 113.765 87.0928 113.641 87.425 113.391C88.3496 112.694 87.4116 111.347 86.3123 111.793ZM87.2288 112.732C87.203 113.223 86.4715 113.133 86.3018 112.617C86.2103 112.338 86.3597 112.214 86.7007 112.286C87.0006 112.349 87.2383 112.549 87.2288 112.732ZM89.8631 115.758C88.5317 116.704 89.306 118.862 90.9765 118.862C91.7197 118.862 92.7699 117.788 92.7699 117.029C92.7699 115.741 90.9859 114.962 89.8631 115.758ZM75.6042 115.851C74.705 115.989 71.5416 116.495 68.5744 116.975C62.2672 117.996 54.9062 118.649 53.0435 118.352C52.3242 118.237 50.5628 117.775 49.1294 117.325C44.0735 115.738 41.8093 116.194 40.1921 119.127C39.2517 120.833 39.4675 121.328 41.9669 123.199C49.5865 128.904 61.5646 131.307 78.2199 130.473C94.3661 129.664 102.609 127.855 106.538 124.257C108.778 122.206 109.324 120.375 108.247 118.527C106.815 116.071 102.681 116.314 97.023 119.188C91.4169 122.035 86.8959 123.076 84.514 122.066C83.8398 121.78 83.2911 121.427 83.2951 121.281C83.299 121.135 83.7656 120.792 84.3325 120.518C86.2561 119.591 86.1011 117.677 84.0019 116.435C82.784 115.714 78.4586 115.413 75.6042 115.851ZM91.7759 116.361C92.4583 117.194 92.0522 118.033 90.967 118.033C90.1868 118.033 89.9684 117.874 89.8805 117.242C89.7101 116.023 91.0059 115.42 91.7759 116.361ZM81.9944 116.876C83.7701 117.217 84.9227 117.953 84.9227 118.745C84.9227 118.989 84.3711 119.45 83.6966 119.771C82.048 120.556 81.9277 121.525 83.3516 122.554C85.6695 124.229 91.3129 123.275 97.3461 120.188C100.447 118.601 102.781 117.868 104.726 117.868C106.243 117.868 106.543 117.987 107.291 118.887C108.27 120.067 108.297 120.242 107.676 121.446C105.805 125.076 99.6391 127.301 87.6296 128.68C81.108 129.429 64.5713 129.539 60.6265 128.86C53.0232 127.55 47.7329 125.655 43.14 122.596C40.1103 120.578 39.9779 120.17 41.7939 118.447C43.1606 117.151 45.6361 117.188 49.6872 118.567C52.6073 119.561 52.8597 119.591 56.6852 119.404C60.7122 119.208 61.4119 119.122 70.6997 117.695C78.9984 116.421 79.4512 116.387 81.9944 116.876ZM30.1428 126.4C29.6517 127.266 28.95 128.309 28.5832 128.719C28.0708 129.293 28.0283 129.465 28.3994 129.465C28.6649 129.465 29.3891 128.572 30.0094 127.48C31.1659 125.444 31.6687 125.165 32.7216 125.973C33.2915 126.411 33.2218 126.569 31.4954 128.762C30.489 130.04 29.6654 131.169 29.6654 131.27C29.6654 131.371 29.8861 131.453 30.1559 131.453C30.4256 131.453 30.6463 131.298 30.6463 131.107C30.6463 130.733 33.1839 127.114 33.6868 126.77C33.966 126.58 31.773 124.826 31.2554 124.826C31.1345 124.826 30.6336 125.534 30.1428 126.4ZM34.8969 127.911C34.8969 128.331 34.3979 129.515 33.7878 130.542C33.178 131.568 32.7611 132.492 32.8615 132.594C33.129 132.865 33.6004 132.819 33.5197 132.53C33.4814 132.393 33.6282 131.956 33.8463 131.558C34.1262 131.047 34.5352 130.843 35.2389 130.863C35.7869 130.879 36.3937 130.731 36.5876 130.535C37.1971 129.917 36.9895 128.385 36.2093 127.745C35.2359 126.947 34.8969 126.989 34.8969 127.911ZM117.227 129.051L117.129 130.956L116.318 129.299C115.872 128.388 115.465 127.578 115.413 127.499C115.362 127.42 115.145 127.532 114.933 127.748C114.711 127.972 114.687 128.14 114.875 128.14C115.056 128.14 115.699 129.176 116.304 130.444C116.909 131.711 117.539 132.664 117.703 132.561C117.871 132.455 117.904 131.517 117.779 130.422C117.654 129.331 117.684 128.471 117.847 128.471C118.007 128.471 118.573 129.213 119.105 130.121C120.093 131.808 120.37 132.036 120.725 131.453C120.837 131.271 120.781 131.122 120.601 131.122C120.422 131.122 119.73 130.227 119.064 129.134C118.398 128.04 117.734 127.145 117.589 127.145C117.444 127.145 117.281 128.003 117.227 129.051ZM36.4133 129.566C36.1936 130.454 35.5482 130.867 34.958 130.497C34.6922 130.331 34.7429 129.919 35.1382 129.036C35.6133 127.973 35.7516 127.869 36.1524 128.276C36.4408 128.568 36.5395 129.057 36.4133 129.566ZM112.838 131.37L112.529 133.276L111.891 131.536C111.297 129.915 110.712 129.39 110.284 130.093C110.184 130.256 110.3 130.466 110.542 130.56C110.784 130.655 111.394 131.714 111.897 132.915C112.401 134.116 112.938 135.098 113.091 135.098C113.244 135.098 113.369 134.099 113.369 132.878C113.369 130.452 113.515 130.45 114.754 132.85C115.502 134.296 115.608 134.378 116.182 133.938C116.737 133.512 116.743 133.461 116.242 133.452C115.902 133.445 115.263 132.665 114.608 131.457C114.016 130.366 113.446 129.471 113.34 129.469C113.234 129.467 113.008 130.322 112.838 131.37ZM38.657 130.528C37.0558 131.458 36.6733 133.371 37.9125 134.251C38.8787 134.937 39.5444 134.901 40.5367 134.11C41.7694 133.127 41.8998 130.459 40.7152 130.459C40.4975 130.459 40.5459 130.69 40.8365 131.039C41.9799 132.413 40.0374 135.163 38.5782 134.236C37.3504 133.456 37.9681 131.118 39.5751 130.462C39.9809 130.297 40.079 130.165 39.8014 130.159C39.5316 130.153 39.0166 130.319 38.657 130.528ZM108.477 130.941C108.246 131.222 107.805 131.453 107.498 131.453C106.507 131.453 106.528 131.804 107.667 134.338C108.282 135.706 108.705 136.959 108.606 137.122C108.281 137.654 109.012 137.432 109.891 136.731C111.476 135.468 110.644 133.181 108.742 133.567C107.952 133.727 107.788 133.631 107.607 132.899C107.37 131.943 107.934 131.355 108.873 131.583C109.497 131.735 109.582 131.523 109.166 130.858C108.951 130.514 108.812 130.531 108.477 130.941ZM43.5664 134.021C42.7548 135.069 42.0905 136.038 42.0905 136.175C42.0901 136.312 41.8851 136.423 41.6347 136.423C41.3842 136.423 41.0867 136.668 40.9732 136.967C40.814 137.388 40.8647 137.429 41.1975 137.149C41.8665 136.587 44.7059 137.718 44.7059 138.547C44.7059 138.898 44.7863 139.103 44.8847 139.003C45.0835 138.802 45.3532 132.116 45.1626 132.116C45.0966 132.116 44.3782 132.973 43.5664 134.021ZM48.2178 135.222L48.6785 137.244L47.6917 138.138C47.1326 138.644 46.8691 139.087 47.0839 139.16C47.2925 139.23 48.3355 138.27 49.4017 137.027C50.4683 135.784 51.5032 134.764 51.7016 134.762C51.9001 134.759 51.8419 134.612 51.5721 134.435C50.9728 134.043 50.4938 134.007 50.7158 134.372C50.9368 134.734 49.4011 136.648 49.1179 136.364C48.9947 136.241 48.8711 135.541 48.8433 134.809C48.809 133.905 48.6268 133.435 48.2747 133.34C47.8068 133.214 47.8016 133.397 48.2178 135.222ZM44.701 135.015C44.6941 137.125 44.3759 137.613 43.3578 137.076C42.9304 136.85 42.5355 136.627 42.4802 136.581C42.3729 136.49 44.4368 133.441 44.6055 133.441C44.6607 133.441 44.7036 134.149 44.701 135.015ZM103.233 134.552C103.233 137.142 103.66 139.737 104.087 139.737C104.328 139.737 104.441 139.527 104.341 139.262C104.227 138.963 104.526 138.596 105.152 138.268C106.409 137.61 106.475 137.615 106.76 138.398C106.918 138.831 107.142 138.957 107.431 138.776C107.767 138.566 107.672 138.295 107.013 137.574C106.545 137.062 105.619 135.922 104.957 135.042C104.294 134.162 103.635 133.441 103.493 133.441C103.35 133.441 103.233 133.941 103.233 134.552ZM109.641 134.026C110.45 134.574 110.291 136.423 109.435 136.423C109.068 136.423 108.163 134.389 108.366 134.021C108.539 133.707 109.173 133.709 109.641 134.026ZM98.4326 134.67C97.7267 134.805 97.7254 134.817 98.3146 135.863C98.6419 136.445 99.0878 137.703 99.3056 138.66C99.7392 140.566 100.45 141.106 100.111 139.271C99.9465 138.384 100.048 137.994 100.586 137.449C101.371 136.653 101.443 136.109 100.862 135.36C100.386 134.746 99.4406 134.477 98.4326 134.67ZM105.591 137.676C104.566 138.47 104.057 138.027 103.96 136.255L103.87 134.601L105.004 135.926C106.036 137.132 106.089 137.29 105.591 137.676ZM52.0874 136.801C51.9648 137.738 51.6689 139.08 51.4296 139.783C51.081 140.808 51.0774 141.062 51.4106 141.062C51.6392 141.062 51.9204 140.555 52.0351 139.935C52.2463 138.794 53.1128 138.079 53.3731 138.831C54.011 140.674 54.2431 141.105 54.6953 141.28C55.4274 141.565 56.0764 140.856 55.5611 140.333C55.2561 140.024 55.1688 140.061 55.1688 140.499C55.1688 141.579 54.5727 141.051 54.0561 139.515C53.77 138.664 53.5722 137.942 53.6167 137.91C53.6611 137.877 54.2562 137.474 54.9392 137.013C55.7635 136.457 56.0303 136.117 55.7331 136.001C55.4869 135.905 55.1302 136.073 54.9405 136.374C54.7509 136.674 54.1362 137.19 53.5745 137.519L52.553 138.118V137.249C52.553 136.771 52.7054 136.091 52.8915 135.739C53.1517 135.246 53.1236 135.098 52.7701 135.098C52.4635 135.098 52.2359 135.666 52.0874 136.801ZM100.225 135.496C100.758 136.036 100.721 137.306 100.166 137.522C99.8699 137.637 99.5427 137.252 99.2118 136.398C98.7442 135.192 98.7485 135.098 99.27 135.098C99.5793 135.098 100.009 135.277 100.225 135.496ZM57.3395 136.588C57.0269 137.414 57.0717 137.481 57.7816 137.253C58.1396 137.138 58.5568 137.121 58.7085 137.216C59.0973 137.46 58.4724 141.829 58.0059 142.13C57.7662 142.284 57.8852 142.38 58.3204 142.383C58.7049 142.386 59.0034 142.202 58.9832 141.974C58.9632 141.746 59.0688 140.615 59.2182 139.462C59.4765 137.465 59.5276 137.373 60.2721 137.563C60.702 137.672 61.0542 137.629 61.0542 137.467C61.0542 137.305 60.3737 137.095 59.5423 137C58.7108 136.905 57.9222 136.649 57.7894 136.432C57.6174 136.15 57.4886 136.194 57.3395 136.588ZM94.3753 137.997C94.3593 139.045 94.3047 140.462 94.254 141.145C94.1902 142.009 94.2955 142.388 94.6002 142.388C94.8458 142.388 94.9592 142.179 94.8585 141.914C94.7336 141.584 95.0501 141.336 95.9009 141.098C97.2735 140.714 97.8101 140.889 97.5295 141.63C97.3945 141.986 97.49 142.072 97.8607 141.928C98.1475 141.816 98.448 141.725 98.5287 141.725C98.6098 141.725 98.1092 140.942 97.4167 139.986C96.7242 139.029 95.8787 137.761 95.5376 137.169C95.1966 136.577 94.8023 136.092 94.661 136.092C94.5201 136.092 94.3916 136.949 94.3753 137.997ZM62.414 137.174C62.5598 137.934 61.987 141.882 61.676 142.261C61.2059 142.836 62.6625 143.099 63.6535 142.619C64.1188 142.394 64.535 141.876 64.5952 141.446C64.7119 140.615 63.8425 139.406 63.1288 139.406C62.6063 139.406 62.6164 139.492 62.9862 138.185C63.217 137.369 63.1775 137.093 62.8096 136.95C62.5379 136.844 62.3692 136.94 62.414 137.174ZM89.3658 137.038C89.2707 137.194 89.5633 137.25 90.0162 137.162C90.5723 137.055 90.9899 137.204 91.3038 137.624C91.7494 138.221 91.7687 138.215 91.7785 137.5C91.7873 136.869 91.6157 136.755 90.6639 136.755C90.0449 136.755 89.461 136.882 89.3658 137.038ZM65.3047 140.041C65.3047 141.839 65.1762 142.711 64.896 142.812C64.6714 142.893 64.5766 143.058 64.6858 143.179C64.795 143.299 65.0893 143.318 65.3397 143.221C65.6729 143.092 65.7651 142.555 65.683 141.221C65.6212 140.218 65.7239 138.952 65.9112 138.407C66.1869 137.605 66.1617 137.418 65.7782 137.418C65.4048 137.418 65.3047 137.972 65.3047 140.041ZM83.3238 137.88C81.5857 138.856 81.1443 141.24 82.4557 142.568C83.4366 143.563 84.8838 143.63 85.949 142.73C86.3738 142.372 86.5494 142.074 86.3394 142.067C86.1299 142.061 85.9091 142.182 85.849 142.336C85.7891 142.491 85.3324 142.718 84.8341 142.842C82.6817 143.376 81.3594 139.878 83.1685 138.436C84.2096 137.606 84.529 137.585 85.3056 138.297C85.8274 138.776 85.9036 138.781 85.9036 138.336C85.9036 138.056 85.5727 137.736 85.1679 137.626C84.2181 137.368 84.24 137.365 83.3238 137.88ZM88.2165 137.885C88.006 138.142 87.7523 138.862 87.6525 139.484C87.406 141.024 88.6122 142.505 90.0793 142.463C91.2619 142.429 92.4429 141.863 92.4429 141.331C92.4429 141.122 92.182 141.199 91.8449 141.508C90.0034 143.197 87.5008 140.878 88.4408 138.353C88.8306 137.307 88.7789 137.198 88.2165 137.885ZM96.0981 138.879C97.0642 140.5 97.0093 140.731 95.658 140.731C94.7644 140.731 94.7317 140.673 94.7317 139.074C94.7317 138.163 94.8432 137.418 94.9792 137.418C95.1155 137.418 95.6191 138.075 96.0981 138.879ZM75.2317 138.002C74.9617 138.179 74.9842 138.364 75.3135 138.673C75.6905 139.028 75.7676 138.985 75.7676 138.424C75.7676 137.67 75.7549 137.66 75.2317 138.002ZM78.7103 137.989L77.239 138.109V141.076V144.043L78.7921 144.044C79.9708 144.045 80.3452 143.922 80.3452 143.536C80.3452 143.136 80.2105 143.1 79.7128 143.37C78.6201 143.963 78.0564 143.786 78.0564 142.849C78.0564 142.093 78.1584 142.01 78.8738 142.193C79.4499 142.339 79.6912 142.266 79.6912 141.943C79.6912 141.634 79.4264 141.537 78.8738 141.644C78.13 141.788 78.0518 141.694 78.0074 140.604C77.9802 139.945 77.9436 139.219 77.9256 138.991C77.8815 138.431 79.2845 138.263 79.8727 138.758C80.2595 139.083 80.3452 139.028 80.3452 138.452C80.3452 138.065 80.3082 137.776 80.2634 137.809C80.2186 137.841 79.5196 137.922 78.7103 137.989ZM72.9642 140.483C72.957 141.804 72.8246 143.17 72.6696 143.517C72.4139 144.092 72.4905 144.129 73.5047 143.923C75.9105 143.436 76.5318 141.181 74.4617 140.45C73.7257 140.19 73.4789 139.896 73.4789 139.281C73.4789 138.778 73.7002 138.402 74.0511 138.309C74.4362 138.206 74.3545 138.144 73.8003 138.119C72.9943 138.081 72.977 138.13 72.9642 140.483ZM63.9838 140.218C64.4791 140.823 64.1443 141.953 63.3406 142.389C62.5235 142.832 62.2751 142.367 62.5461 140.902C62.773 139.676 63.3246 139.413 63.9838 140.218ZM75.0571 141.661C75.1771 142.518 74.6108 143.382 73.9294 143.382C73.6205 143.382 73.4789 142.958 73.4789 142.033C73.4789 140.824 73.5551 140.696 74.2145 140.791C74.6936 140.86 74.9875 141.163 75.0571 141.661Z" fill="#178F55"/>
</svg>
